name Walk6.mot
datacolumns 19
datarows 12
range 1.31900000 1.33000000
endheader

                time	   L_ground_force_vx	   L_ground_force_vy	   L_ground_force_vz	   L_ground_force_px	   L_ground_force_py	   L_ground_force_pz	   R_ground_force_vx	   R_ground_force_vy	   R_ground_force_vz	   R_ground_force_px	   R_ground_force_py	   R_ground_force_pz	   L_ground_torque_x	   L_ground_torque_y	   L_ground_torque_z	   R_ground_torque_x	   R_ground_torque_y	   R_ground_torque_z	
          1.31900000	         28.66035822	        639.22987276	         39.37059700	         -0.32077973	          0.00000000	         -0.02641540	         -0.05384505	          0.32961472	          0.00325540	          0.00017985	          0.00000000	          0.00010360	          0.00000000	         -1.67130755	          0.00000000	          0.00000000	         -0.00031214	          0.00000000	
          1.32000000	         28.86836118	        640.00253016	         39.56481003	         -0.32013163	          0.00000000	         -0.02648720	         -0.05675424	          0.34639982	          0.00345073	          0.00018506	          0.00000000	          0.00010639	          0.00000000	         -1.67762590	          0.00000000	          0.00000000	         -0.00033128	          0.00000000	
          1.32100000	         29.07592545	        640.80832708	         39.76000062	         -0.31948210	          0.00000000	         -0.02655801	         -0.05969937	          0.36331407	          0.00364996	          0.00019000	          0.00000000	          0.00010900	          0.00000000	         -1.68374982	          0.00000000	          0.00000000	         -0.00035083	          0.00000000	
          1.32200000	         29.28336380	        641.64811735	         39.95610961	         -0.31883136	          0.00000000	         -0.02662780	         -0.06267163	          0.38029962	          0.00385262	          0.00019462	          0.00000000	          0.00011141	          0.00000000	         -1.68967395	          0.00000000	          0.00000000	         -0.00037075	          0.00000000	
          1.32300000	         29.49101296	        642.52269167	         40.15307242	         -0.31817964	          0.00000000	         -0.02669652	         -0.06566126	          0.39729296	          0.00405821	          0.00019886	          0.00000000	          0.00011358	          0.00000000	         -1.69539291	          0.00000000	          0.00000000	         -0.00039099	          0.00000000	
          1.32400000	         29.69923359	        643.43277748	         40.35081921	         -0.31752718	          0.00000000	         -0.02676415	         -0.06865753	          0.41422461	          0.00426615	          0.00020267	          0.00000000	          0.00011548	          0.00000000	         -1.70090118	          0.00000000	          0.00000000	         -0.00041149	          0.00000000	
          1.32500000	         29.90840994	        644.37903934	         40.54927481	         -0.31687422	          0.00000000	         -0.02683063	         -0.07164867	          0.43101893	          0.00447579	          0.00020600	          0.00000000	          0.00011708	          0.00000000	         -1.70619287	          0.00000000	          0.00000000	         -0.00043220	          0.00000000	
          1.32600000	         30.11894924	        645.36207986	         40.74835835	         -0.31622100	          0.00000000	         -0.02689593	         -0.07462187	          0.44759380	          0.00468642	          0.00020879	          0.00000000	          0.00011834	          0.00000000	         -1.71126157	          0.00000000	          0.00000000	         -0.00045305	          0.00000000	
          1.32700000	         30.33128090	        646.38244082	         40.94798289	         -0.31556775	          0.00000000	         -0.02695998	         -0.07756316	          0.46386036	          0.00489727	          0.00021097	          0.00000000	          0.00011924	          0.00000000	         -1.71610026	          0.00000000	          0.00000000	         -0.00047396	          0.00000000	
          1.32800000	         30.54585526	        647.44060406	         41.14805501	         -0.31491473	          0.00000000	         -0.02702276	         -0.08045745	          0.47972279	          0.00510749	          0.00021249	          0.00000000	          0.00011972	          0.00000000	         -1.72070138	          0.00000000	          0.00000000	         -0.00049487	          0.00000000	
          1.32900000	         30.76314199	        648.53699164	         41.34847461	         -0.31426218	          0.00000000	         -0.02708420	         -0.08328841	          0.49507803	          0.00531615	          0.00021327	          0.00000000	          0.00011976	          0.00000000	         -1.72505689	          0.00000000	          0.00000000	         -0.00051567	          0.00000000	
          1.33000000	         30.98362792	        649.67196477	         41.54913489	         -0.31361035	          0.00000000	         -0.02714428	         -0.08603846	          0.50981552	          0.00552225	          0.00021324	          0.00000000	          0.00011930	          0.00000000	         -1.72915846	          0.00000000	          0.00000000	         -0.00053627	          0.00000000	
